<svg xmlns="http://www.w3.org/2000/svg" xmlns:xlink="http://www.w3.org/1999/xlink" contentStyleType="text/css" data-diagram-type="DESCRIPTION" height="1100px" preserveAspectRatio="none" style="width:2027px;height:1100px;background:#FFFFFF;" version="1.1" viewBox="0 0 2027 1100" width="2027px" zoomAndPan="magnify"><?plantuml $version$?><defs/><g><g class="title" data-source-line="8"><text fill="#000000" font-family="sans-serif" font-size="14" font-weight="700" lengthAdjust="spacing" textLength="258.145" x="881.0625" y="24.9659">Cafe Campus - Arquitectura Avance 2</text><text fill="#000000" font-family="sans-serif" font-size="14" font-weight="700" lengthAdjust="spacing" textLength="440.4103" x="789.9298" y="44.0339">gRPC (Pedidos -&gt; Productos) + RabbitMQ (Pedidos -&gt; Inventario)</text><text fill="#000000" font-family="sans-serif" font-size="14" font-weight="700" lengthAdjust="spacing" textLength="219.2811" x="900.4944" y="63.1018">sobre el TCP/Redis del Avance 1</text></g><!--cluster Microservicios de dominio--><g class="cluster" data-qualified-name="Microservicios de dominio" data-source-line="35" id="ent0003"><path d="M830.81,403.0438 L1014.3973,403.0438 A3.75,3.75 0 0 1 1016.8973,405.5438 L1023.8973,428.1117 L1576.81,428.1117 A2.5,2.5 0 0 1 1579.31,430.6117 L1579.31,767.1538 A2.5,2.5 0 0 1 1576.81,769.6538 L830.81,769.6538 A2.5,2.5 0 0 1 828.31,767.1538 L828.31,405.5438 A2.5,2.5 0 0 1 830.81,403.0438" fill="none" style="stroke:#000000;stroke-width:1.5;"/><line style="stroke:#000000;stroke-width:1.5;" x1="828.31" x2="1023.8973" y1="428.1117" y2="428.1117"/><text fill="#000000" font-family="sans-serif" font-size="14" font-weight="700" lengthAdjust="spacing" textLength="182.5873" x="832.31" y="420.0097">Microservicios de dominio</text></g><!--entity prod--><g class="entity" data-qualified-name="Microservicios de dominio.prod" data-source-line="36" id="ent0004"><rect fill="#ECF0F1" height="77.2038" rx="2.5" ry="2.5" style="stroke:#34495E;stroke-width:0.5;" width="159.6774" x="978.47" y="657.3838"/><text fill="#000000" font-family="sans-serif" font-size="14" lengthAdjust="spacing" textLength="90.9577" x="1012.8299" y="682.3497">MS Productos</text><text fill="#000000" font-family="sans-serif" font-size="14" lengthAdjust="spacing" textLength="73.8357" x="1021.3909" y="701.4176">HTTP :3001</text><text fill="#000000" font-family="sans-serif" font-size="14" lengthAdjust="spacing" textLength="139.6774" x="988.47" y="720.4855">gRPC servidor :50051</text></g><!--entity ped--><g class="entity" data-qualified-name="Microservicios de dominio.ped" data-source-line="37" id="ent0005"><rect fill="#ECF0F1" height="96.2717" rx="2.5" ry="2.5" style="stroke:#34495E;stroke-width:0.5;" width="248.8571" x="1148.88" y="463.0438"/><text fill="#000000" font-family="sans-serif" font-size="14" lengthAdjust="spacing" textLength="76.3977" x="1235.1097" y="488.0097">MS Pedidos</text><text fill="#000000" font-family="sans-serif" font-size="14" lengthAdjust="spacing" textLength="73.8357" x="1236.3907" y="507.0776">HTTP :3002</text><text fill="#000000" font-family="sans-serif" font-size="14" lengthAdjust="spacing" textLength="64.5257" x="1241.0457" y="526.1455">TCP :4002</text><text fill="#000000" font-family="sans-serif" font-size="14" lengthAdjust="spacing" textLength="228.8571" x="1158.88" y="545.2134">cliente gRPC + publisher RabbitMQ</text></g><!--entity inv--><g class="entity" data-qualified-name="Microservicios de dominio.inv" data-source-line="38" id="ent0006"><rect fill="#ECF0F1" height="115.3396" rx="2.5" ry="2.5" style="stroke:#34495E;stroke-width:0.5;" width="155.6875" x="1173.46" y="638.3138"/><text fill="#000000" font-family="sans-serif" font-size="14" lengthAdjust="spacing" textLength="91.8537" x="1205.3769" y="663.2797">MS Inventario</text><text fill="#000000" font-family="sans-serif" font-size="14" lengthAdjust="spacing" textLength="73.8357" x="1214.3859" y="682.3476">HTTP :3003</text><text fill="#000000" font-family="sans-serif" font-size="14" lengthAdjust="spacing" textLength="64.5257" x="1219.0409" y="701.4155">TCP :4003</text><text fill="#000000" font-family="sans-serif" font-size="14" lengthAdjust="spacing" textLength="108.2476" x="1197.1799" y="720.4834">Redis subscriber</text><text fill="#000000" font-family="sans-serif" font-size="14" lengthAdjust="spacing" textLength="135.6875" x="1183.46" y="739.5514">consumer RabbitMQ</text></g><!--entity cliente--><g class="entity" data-qualified-name="cliente" data-source-line="31" id="ent0001"><ellipse cx="390.3048" cy="92.2038" fill="#F1F1F1" rx="8" ry="8" style="stroke:#181818;stroke-width:0.5;"/><path d="M390.3048,100.2038 L390.3048,127.2038 M377.3048,108.2038 L403.3048,108.2038 M390.3048,127.2038 L377.3048,142.2038 M390.3048,127.2038 L403.3048,142.2038" fill="none" style="stroke:#181818;stroke-width:0.5;"/><text fill="#000000" font-family="sans-serif" font-size="14" lengthAdjust="spacing" textLength="45.5698" x="367.5199" y="158.6697">Cliente</text><text fill="#000000" font-family="sans-serif" font-size="14" lengthAdjust="spacing" textLength="103.9496" x="338.33" y="177.7376">(Postman / curl)</text></g><!--entity gw--><g class="entity" data-qualified-name="gw" data-source-line="33" id="ent0002"><rect fill="#ECF0F1" height="77.2038" rx="2.5" ry="2.5" style="stroke:#34495E;stroke-width:0.5;" width="155.7155" x="312.45" y="260.8338"/><text fill="#000000" font-family="sans-serif" font-size="14" lengthAdjust="spacing" textLength="82.7957" x="348.9099" y="285.7997">API Gateway</text><text fill="#000000" font-family="sans-serif" font-size="14" lengthAdjust="spacing" textLength="111.1595" x="334.728" y="304.8676">HTTP :3000 (/api)</text><text fill="#000000" font-family="sans-serif" font-size="14" lengthAdjust="spacing" textLength="135.7155" x="322.45" y="323.9355">JWT + Guards por rol</text></g><!--entity proto--><g class="entity" data-qualified-name="proto" data-source-line="41" id="ent0007"><rect fill="#EBF5FB" height="61.1358" rx="2.5" ry="2.5" style="stroke:#34495E;stroke-width:0.5;" width="212.6433" x="1241.99" y="268.8738"/><polygon fill="#EBF5FB" points="1437.6333,273.8738,1437.6333,287.8738,1449.6333,287.8738,1449.6333,279.8738,1443.6333,273.8738,1437.6333,273.8738" style="stroke:#34495E;stroke-width:0.5;stroke-linejoin:miter;stroke-miterlimit:10;"/><line style="stroke:#34495E;stroke-width:0.5;" x1="1443.6333" x2="1443.6333" y1="273.8738" y2="279.8738"/><line style="stroke:#34495E;stroke-width:0.5;" x1="1449.6333" x2="1443.6333" y1="279.8738" y2="279.8738"/><text fill="#000000" font-family="sans-serif" font-size="14" lengthAdjust="spacing" textLength="148.8055" x="1268.9089" y="296.8397">proto/productos.proto</text><text fill="#000000" font-family="sans-serif" font-size="14" lengthAdjust="spacing" textLength="182.6433" x="1251.99" y="315.9076">(contrato gRPC compartido)</text></g><!--entity pg--><g class="entity" data-qualified-name="pg" data-source-line="43" id="ent0008"><path d="M1175,826.6538 C1175,816.6538 1251.3037,816.6538 1251.3037,816.6538 C1251.3037,816.6538 1327.6075,816.6538 1327.6075,826.6538 L1327.6075,911.9254 C1327.6075,921.9254 1251.3037,921.9254 1251.3037,921.9254 C1251.3037,921.9254 1175,921.9254 1175,911.9254 L1175,826.6538" fill="#FDF6E3" style="stroke:#34495E;stroke-width:0.5;"/><path d="M1175,826.6538 C1175,836.6538 1251.3037,836.6538 1251.3037,836.6538 C1251.3037,836.6538 1327.6075,836.6538 1327.6075,826.6538" fill="none" style="stroke:#34495E;stroke-width:0.5;"/><text fill="#000000" font-family="sans-serif" font-size="14" lengthAdjust="spacing" textLength="116.3676" x="1193.12" y="855.6197">PostgreSQL :5432</text><text fill="#000000" font-family="sans-serif" font-size="14" lengthAdjust="spacing" textLength="132.6075" x="1185" y="874.6876">(productos_schema)</text><text fill="#000000" font-family="sans-serif" font-size="14" lengthAdjust="spacing" textLength="118.0475" x="1192.28" y="893.7555">(pedidos_schema)</text><text fill="#000000" font-family="sans-serif" font-size="14" lengthAdjust="spacing" textLength="132.2295" x="1185.189" y="912.8234">(inventario_schema)</text></g><!--entity redis--><g class="entity" data-qualified-name="redis" data-source-line="44" id="ent0009"><path d="M157.47,487.1138 L297.1375,487.1138 C302.1375,487.1138 302.1375,511.1817 302.1375,511.1817 C302.1375,511.1817 302.1375,535.2496 297.1375,535.2496 L157.47,535.2496 C152.47,535.2496 152.47,511.1817 152.47,511.1817 C152.47,511.1817 152.47,487.1138 157.47,487.1138" fill="#FDEBD0" style="stroke:#34495E;stroke-width:0.5;"/><path d="M297.1375,487.1138 C292.1375,487.1138 292.1375,511.1817 292.1375,511.1817 C292.1375,535.2496 297.1375,535.2496 297.1375,535.2496" fill="none" style="stroke:#34495E;stroke-width:0.5;"/><text fill="#000000" font-family="sans-serif" font-size="14" lengthAdjust="spacing" textLength="74.9557" x="184.8259" y="507.0797">Redis :6379</text><text fill="#000000" font-family="sans-serif" font-size="14" lengthAdjust="spacing" textLength="129.6675" x="157.47" y="526.1476">(pub/sub, Avance 1)</text></g><!--entity rabbit--><g class="entity" data-qualified-name="rabbit" data-source-line="45" id="ent0010"><path d="M1676.38,477.5738 L1830.2434,477.5738 C1835.2434,477.5738 1835.2434,511.1756 1835.2434,511.1756 C1835.2434,511.1756 1835.2434,544.7775 1830.2434,544.7775 L1676.38,544.7775 C1671.38,544.7775 1671.38,511.1756 1671.38,511.1756 C1671.38,511.1756 1671.38,477.5738 1676.38,477.5738" fill="#FDEBD0" style="stroke:#34495E;stroke-width:0.5;"/><path d="M1830.2434,477.5738 C1825.2434,477.5738 1825.2434,511.1756 1825.2434,511.1756 C1825.2434,544.7775 1830.2434,544.7775 1830.2434,544.7775" fill="none" style="stroke:#34495E;stroke-width:0.5;"/><text fill="#000000" font-family="sans-serif" font-size="14" lengthAdjust="spacing" textLength="105.5036" x="1695.5599" y="497.5397">RabbitMQ :5672</text><text fill="#000000" font-family="sans-serif" font-size="14" lengthAdjust="spacing" textLength="81.3117" x="1707.6559" y="516.6076">cola durable</text><text fill="#000000" font-family="sans-serif" font-size="14" lengthAdjust="spacing" textLength="143.8634" x="1676.38" y="535.6755">cafe_campus_pedidos</text></g><g class="entity" data-qualified-name="GMN22" data-source-line="68" id="ent0023"><path d="M1594.81,646.7138 L1594.81,745.2438 L1953.7973,745.2438 L1953.7973,656.7138 L1943.7973,646.7138 L1594.81,646.7138" fill="#E8DAEF" style="stroke:#181818;stroke-width:0.5;"/><path d="M1943.7973,646.7138 L1943.7973,656.7138 L1953.7973,656.7138 L1943.7973,646.7138" fill="#E8DAEF" style="stroke:#181818;stroke-width:1;"/><text fill="#000000" font-family="sans-serif" font-size="13" lengthAdjust="spacing" textLength="156.1822" x="1691.7126" y="665.6108">gRPC (POST /api/pedidos)</text><text fill="#000000" font-family="sans-serif" font-size="13" lengthAdjust="spacing" textLength="247.0522" x="1646.2775" y="683.3168">Pedidos consulta nombre/precio REALES</text><text fill="#000000" font-family="sans-serif" font-size="13" lengthAdjust="spacing" textLength="272.5582" x="1633.5245" y="701.0228">al servidor de Productos por contrato .proto.</text><text fill="#000000" font-family="sans-serif" font-size="13" lengthAdjust="spacing" textLength="328.2243" x="1605.6915" y="718.7288">Si el producto no existe =&gt; RpcException NOT_FOUND</text><text fill="#000000" font-family="sans-serif" font-size="13" lengthAdjust="spacing" textLength="337.9873" x="1600.81" y="736.4348">se traduce a HTTP 422 (try/catch) sin tumbar el servicio.</text></g><g class="entity" data-qualified-name="GMN27" data-source-line="79" id="ent0028"><path d="M512.13,470.7638 L512.13,551.5878 L812.4872,551.5878 L812.4872,480.7638 L802.4872,470.7638 L512.13,470.7638" fill="#FDEBD0" style="stroke:#181818;stroke-width:0.5;"/><path d="M802.4872,470.7638 L802.4872,480.7638 L812.4872,480.7638 L802.4872,470.7638" fill="#FDEBD0" style="stroke:#181818;stroke-width:1;"/><text fill="#000000" font-family="sans-serif" font-size="13" lengthAdjust="spacing" textLength="257.9333" x="528.842" y="489.6608">RabbitMQ (segundo transporte asincrono)</text><text fill="#000000" font-family="sans-serif" font-size="13" lengthAdjust="spacing" textLength="279.3572" x="518.13" y="507.3668">Cola DURABLE: a diferencia de Redis pub/sub,</text><text fill="#000000" font-family="sans-serif" font-size="13" lengthAdjust="spacing" textLength="258.3882" x="528.6145" y="525.0728">el mensaje persiste aunque el consumidor</text><text fill="#000000" font-family="sans-serif" font-size="13" lengthAdjust="spacing" textLength="226.7462" x="544.4355" y="542.7788">este caido y se entrega al reconectar.</text></g><!--link proto to prod--><g class="link" data-entity-1="ent0007" data-entity-2="ent0004" data-link-type="dependency" data-source-line="48" id="lnk11"><path d="M1376.17,330.3238 C1438.01,398.2738 1578.01,562.0938 1535.31,608.3138 C1506.64,639.3438 1196.64,625.7638 1156.31,638.3138 C1142.05,642.7538 1131.9788,647.1119 1118.7388,654.4819" fill="none" id="proto-to-prod" style="stroke:#7D3C98;stroke-width:1.2;stroke-dasharray:7,7;"/><polygon fill="#7D3C98" points="1114.37,656.9138,1124.1793,656.0314,1118.7388,654.4819,1120.2883,649.0414,1114.37,656.9138" style="stroke:#7D3C98;stroke-width:1.2;stroke-linejoin:miter;stroke-miterlimit:10;"/><text fill="#7D3C98" font-family="sans-serif" font-size="13" lengthAdjust="spacing" textLength="92.0141" x="1539.06" y="516.5708">define servidor</text></g><!--link proto to ped--><g class="link" data-entity-1="ent0007" data-entity-2="ent0005" data-link-type="dependency" data-source-line="49" id="lnk12"><path d="M1322.25,330.3038 C1313.73,341.4838 1305.01,354.7138 1299.31,368.0438 C1286.49,398.0238 1280.5564,429.2471 1277.2664,457.5971" fill="none" id="proto-to-ped" style="stroke:#7D3C98;stroke-width:1.2;stroke-dasharray:7,7;"/><polygon fill="#7D3C98" points="1276.69,462.5638,1281.7008,454.0849,1277.2664,457.5971,1273.7541,453.1626,1276.69,462.5638" style="stroke:#7D3C98;stroke-width:1.2;stroke-linejoin:miter;stroke-miterlimit:10;"/><text fill="#7D3C98" font-family="sans-serif" font-size="13" lengthAdjust="spacing" textLength="82.2381" x="1300.31" y="382.9408">define cliente</text></g><!--link cliente to gw--><g class="link" data-entity-1="ent0001" data-entity-2="ent0002" data-link-type="dependency" data-source-line="52" id="lnk13"><path d="M390.31,182.2838 C390.31,207.2338 390.31,232.2038 390.31,255.4438" fill="none" id="cliente-to-gw" style="stroke:#181818;stroke-width:1.2;"/><polygon fill="#181818" points="390.31,260.4438,394.31,251.4438,390.31,255.4438,386.31,251.4438,390.31,260.4438" style="stroke:#181818;stroke-width:1.2;stroke-linejoin:miter;stroke-miterlimit:10;"/><text fill="#000000" font-family="sans-serif" font-size="13" lengthAdjust="spacing" textLength="65.0131" x="391.31" y="226.7308">HTTP REST</text></g><!--link gw to prod--><g class="link" data-entity-1="ent0002" data-entity-2="ent0004" data-link-type="dependency" data-source-line="55" id="lnk14"><path d="M312.09,310.4338 C220.69,323.9938 78.11,351.6038 48.31,395.0438 C7,455.2438 6,499.8138 48.31,559.3138 C102.2,635.0938 743.8379,677.6335 973.2379,690.5135" fill="none" id="gw-to-prod" style="stroke:#181818;stroke-width:1.2;stroke-dasharray:7,7;"/><polygon fill="#181818" points="978.23,690.7938,969.4684,686.2955,973.2379,690.5135,969.0199,694.2829,978.23,690.7938" style="stroke:#181818;stroke-width:1.2;stroke-linejoin:miter;stroke-miterlimit:10;"/><text fill="#2E86C1" font-family="sans-serif" font-size="13" lengthAdjust="spacing" textLength="85.9561" x="49.31" y="516.5708">HTTP dominio</text></g><!--link gw to ped--><g class="link" data-entity-1="ent0002" data-entity-2="ent0005" data-link-type="dependency" data-source-line="56" id="lnk15"><path d="M468.43,309.0338 C555.66,319.4538 700.72,339.2838 823.31,368.0438 C934.98,394.2338 1054.3636,432.6623 1143.9136,463.5723" fill="none" id="gw-to-ped" style="stroke:#181818;stroke-width:1.2;stroke-dasharray:7,7;"/><polygon fill="#181818" points="1148.64,465.2038,1141.4377,458.4861,1143.9136,463.5723,1138.8274,466.0483,1148.64,465.2038" style="stroke:#181818;stroke-width:1.2;stroke-linejoin:miter;stroke-miterlimit:10;"/><text fill="#2E86C1" font-family="sans-serif" font-size="13" lengthAdjust="spacing" textLength="186.4982" x="886.53" y="382.9408">HTTP dominio (POST /pedidos)</text></g><!--link gw to ped--><g class="link" data-entity-1="ent0002" data-entity-2="ent0005" data-link-type="dependency" data-source-line="86" id="lnk30"><path d="M466.26,338.3938 C506.77,356.6938 558.09,376.8338 606.31,387.0438 C655.04,397.3538 781.02,387.8438 830.31,395.0438 C939.6,411.0038 1056.0316,442.1344 1143.9916,468.5744" fill="none" id="gw-to-ped-1" style="stroke:#C0392B;stroke-width:1.2;"/><polygon fill="#C0392B" points="1148.78,470.0138,1141.3124,463.5923,1143.9916,468.5744,1139.0095,471.2536,1148.78,470.0138" style="stroke:#C0392B;stroke-width:1.2;stroke-linejoin:miter;stroke-miterlimit:10;"/><text fill="#C0392B" font-family="sans-serif" font-size="13" lengthAdjust="spacing" textLength="207.2202" x="607.31" y="382.9408">1) TCP benchmark.sync (Avance 1)</text></g><!--link gw to inv--><g class="link" data-entity-1="ent0002" data-entity-2="ent0006" data-link-type="dependency" data-source-line="57" id="lnk16"><path d="M379.4,338.4738 C365.79,394.8838 350.66,500.3738 407.31,559.3138 C523.13,679.8238 996.61,585.8538 1155.31,638.3138 C1161.28,640.2838 1162.7179,640.6274 1168.6479,643.2874" fill="none" id="gw-to-inv" style="stroke:#181818;stroke-width:1.2;stroke-dasharray:7,7;"/><polygon fill="#181818" points="1173.21,645.3338,1166.6354,638.0006,1168.6479,643.2874,1163.3612,645.2999,1173.21,645.3338" style="stroke:#181818;stroke-width:1.2;stroke-linejoin:miter;stroke-miterlimit:10;"/><text fill="#2E86C1" font-family="sans-serif" font-size="13" lengthAdjust="spacing" textLength="85.9561" x="408.31" y="516.5708">HTTP dominio</text></g><!--link ped to inv--><g class="link" data-entity-1="ent0005" data-entity-2="ent0006" data-link-type="dependency" data-source-line="58" id="lnk17"><path d="M1334.37,559.3338 C1346.18,574.1338 1352.84,591.1238 1345.31,608.3138 C1340.63,618.9838 1337.1629,625.118 1329.4429,634.178" fill="none" id="ped-to-inv" style="stroke:#181818;stroke-width:1.2;stroke-dasharray:7,7;"/><polygon fill="#181818" points="1326.2,637.9838,1335.0818,633.7277,1329.4429,634.178,1328.9926,628.5391,1326.2,637.9838" style="stroke:#181818;stroke-width:1.2;stroke-linejoin:miter;stroke-miterlimit:10;"/><text fill="#2E86C1" font-family="sans-serif" font-size="13" lengthAdjust="spacing" textLength="177.8271" x="1349.5" y="604.2108">HTTP validar/descontar stock</text></g><!--link ped to inv--><g class="link" data-entity-1="ent0005" data-entity-2="ent0006" data-link-type="dependency" data-source-line="87" id="lnk31"><path d="M1148.61,538.9138 C1123.29,550.2438 1099.73,566.3638 1084.31,589.3138 C1079.6,596.3238 1079.64,601.2738 1084.31,608.3138 C1103.24,636.8638 1124.71,622.9038 1155.31,638.3138 C1161.18,641.2738 1162.8011,642.0485 1168.8111,645.3285" fill="none" id="ped-to-inv-1" style="stroke:#C0392B;stroke-width:1.2;"/><polygon fill="#C0392B" points="1173.2,647.7238,1167.2162,639.9011,1168.8111,645.3285,1163.3837,646.9234,1173.2,647.7238" style="stroke:#C0392B;stroke-width:1.2;stroke-linejoin:miter;stroke-miterlimit:10;"/><text fill="#C0392B" font-family="sans-serif" font-size="13" lengthAdjust="spacing" textLength="251.0302" x="1085.31" y="604.2108">2) TCP benchmark.stock-check (Avance 1)</text></g><!--link prod to pg--><g class="link" data-entity-1="ent0004" data-entity-2="ent0008" data-link-type="dependency" data-source-line="61" id="lnk18"><path d="M1101.14,735.0038 C1128.13,758.9538 1159.58,786.8753 1189.12,813.0853" fill="none" id="prod-to-pg" style="stroke:#181818;stroke-width:1.2;"/><polygon fill="#181818" points="1192.86,816.4038,1188.7827,807.4385,1189.12,813.0853,1183.4732,813.4226,1192.86,816.4038" style="stroke:#181818;stroke-width:1.2;stroke-linejoin:miter;stroke-miterlimit:10;"/></g><!--link ped to pg--><g class="link" data-entity-1="ent0005" data-entity-2="ent0008" data-link-type="dependency" data-source-line="62" id="lnk19"><path d="M1398.11,546.4838 C1419.09,551.3838 1440.73,555.9038 1461.31,559.3138 C1574.45,578.0538 1904.16,545.3438 1971.31,638.3138 C2007.57,688.5138 2012.27,731.2038 1971.31,777.6538 C1929.2,825.3938 1509.732,853.9708 1332.942,863.9908" fill="none" id="ped-to-pg" style="stroke:#181818;stroke-width:1.2;"/><polygon fill="#181818" points="1327.95,864.2738,1337.1619,867.7581,1332.942,863.9908,1336.7092,859.7709,1327.95,864.2738" style="stroke:#181818;stroke-width:1.2;stroke-linejoin:miter;stroke-miterlimit:10;"/></g><!--link inv to pg--><g class="link" data-entity-1="ent0006" data-entity-2="ent0008" data-link-type="dependency" data-source-line="63" id="lnk20"><path d="M1251.31,754.0238 C1251.31,774.1738 1251.31,791.7038 1251.31,811.4038" fill="none" id="inv-to-pg" style="stroke:#181818;stroke-width:1.2;"/><polygon fill="#181818" points="1251.31,816.4038,1255.31,807.4038,1251.31,811.4038,1247.31,807.4038,1251.31,816.4038" style="stroke:#181818;stroke-width:1.2;stroke-linejoin:miter;stroke-miterlimit:10;"/></g><!--link ped to prod--><g class="link" data-entity-1="ent0005" data-entity-2="ent0004" data-link-type="dependency" data-source-line="66" id="lnk21"><path d="M1148.6,521.3138 C1052.67,531.2538 931.42,551.1138 900.31,589.3138 C870.04,626.4838 920.2477,653.8696 973.4577,672.0196" fill="none" id="ped-to-prod" style="stroke:#7D3C98;stroke-width:2;"/><polygon fill="#7D3C98" points="978.19,673.6338,970.9633,666.9424,973.4577,672.0196,968.3806,674.514,978.19,673.6338" style="stroke:#7D3C98;stroke-width:2;stroke-linejoin:miter;stroke-miterlimit:10;"/><text fill="#7D3C98" font-family="sans-serif" font-size="13" font-weight="700" lengthAdjust="spacing" textLength="170.5341" x="901.31" y="604.2108">gRPC ObtenerProducto(id)</text></g><!--link prod to GMN22--><g class="link" data-entity-1="ent0004" data-entity-2="ent0023" data-link-type="association" data-source-line="68" id="lnk24"><path d="M1091.45,657.0138 C1112.52,635.3638 1141.8,610.4838 1173.81,598.8138 C1335.81,539.7238 1393.31,562.1138 1561.81,598.8138 C1605.21,608.2638 1650.36,627.4138 1687.83,646.2238" fill="none" id="prod-GMN22" style="stroke:#181818;stroke-width:1.2;stroke-dasharray:7,7;"/></g><!--link ped to rabbit--><g class="link" data-entity-1="ent0005" data-entity-2="ent0010" data-link-type="dependency" data-source-line="76" id="lnk25"><path d="M1336.92,462.7238 C1371.67,439.3138 1416.63,413.7138 1461.31,401.6438 C1511.94,387.9738 1528.92,387.1038 1579.31,401.6438 C1630.24,416.3438 1676.7095,447.7405 1710.0495,474.1305" fill="none" id="ped-to-rabbit" style="stroke:#B9770E;stroke-width:2;"/><polygon fill="#B9770E" points="1713.97,477.2338,1709.3957,468.5116,1710.0495,474.1305,1704.4306,474.7843,1713.97,477.2338" style="stroke:#B9770E;stroke-width:2;stroke-linejoin:miter;stroke-miterlimit:10;"/><text fill="#B9770E" font-family="sans-serif" font-size="13" font-weight="700" lengthAdjust="spacing" textLength="202.2801" x="1433.31" y="382.9408">emit('pedido.creado.rabbitmq')</text></g><!--link rabbit to inv--><g class="link" data-entity-1="ent0010" data-entity-2="ent0006" data-link-type="dependency" data-source-line="77" id="lnk26"><path d="M1713.39,545.2138 C1686.36,566.0738 1649.01,592.0538 1612.31,608.3138 C1519.64,649.3638 1409.5484,671.9011 1334.5884,683.7811" fill="none" id="rabbit-to-inv" style="stroke:#B9770E;stroke-width:2;"/><polygon fill="#B9770E" points="1329.65,684.5638,1339.1652,687.1057,1334.5884,683.7811,1337.9129,679.2043,1329.65,684.5638" style="stroke:#B9770E;stroke-width:2;stroke-linejoin:miter;stroke-miterlimit:10;"/><text fill="#B9770E" font-family="sans-serif" font-size="13" font-weight="700" lengthAdjust="spacing" textLength="168.2851" x="1646.47" y="604.2108">@EventPattern (consume)</text></g><!--link GMN27 to rabbit--><g class="link" data-entity-1="ent0028" data-entity-2="ent0010" data-link-type="association" data-source-line="79" id="lnk29"><path d="M698.38,470.3338 C732.37,435.1838 786.79,387.0038 845.81,366.5438 C920.97,340.4838 1486.38,341.2538 1561.81,366.5438 C1626.79,388.3238 1687.33,441.8338 1722.31,477.3038" fill="none" id="GMN27-rabbit" style="stroke:#181818;stroke-width:1.2;stroke-dasharray:7,7;"/></g><!--link gw to redis--><g class="link" data-entity-1="ent0002" data-entity-2="ent0009" data-link-type="dependency" data-source-line="90" id="lnk32"><path d="M312.17,310.1138 C243.69,320.3838 151.65,339.1638 129.31,368.0438 C112.61,389.6138 165.6736,448.7992 199.7736,483.2692" fill="none" id="gw-to-redis" style="stroke:#1E8449;stroke-width:1.2;"/><polygon fill="#1E8449" points="203.29,486.8238,199.8041,477.6124,199.7736,483.2692,194.1168,483.2387,203.29,486.8238" style="stroke:#1E8449;stroke-width:1.2;stroke-linejoin:miter;stroke-miterlimit:10;"/><text fill="#1E8449" font-family="sans-serif" font-size="13" lengthAdjust="spacing" textLength="233.0122" x="130.31" y="382.9408">emit('pedido.creado.async') (Avance 1)</text></g><!--link redis to inv--><g class="link" data-entity-1="ent0009" data-entity-2="ent0006" data-link-type="dependency" data-source-line="91" id="lnk33"><path d="M211.94,535.5438 C199.77,557.2538 187.64,589.0538 206.31,608.3138 C243.01,646.1938 1104.65,623.6138 1155.31,638.3138 C1161.26,640.0338 1162.6198,640.2546 1168.4898,642.7546" fill="none" id="redis-to-inv" style="stroke:#1E8449;stroke-width:1.2;"/><polygon fill="#1E8449" points="1173.09,644.7138,1166.377,637.5071,1168.4898,642.7546,1163.2423,644.8674,1173.09,644.7138" style="stroke:#1E8449;stroke-width:1.2;stroke-linejoin:miter;stroke-miterlimit:10;"/><text fill="#1E8449" font-family="sans-serif" font-size="13" lengthAdjust="spacing" textLength="156.6631" x="207.31" y="604.2108">@EventPattern (Avance 1)</text></g><g class="legend" data-source-line="93"><rect fill="#DDDDDD" height="128.4075" rx="7.5" ry="7.5" style="stroke:#000000;stroke-width:1;" width="488.7001" x="1519.5699" y="952.9254"/><text fill="#000000" font-family="sans-serif" font-size="14" font-weight="700" lengthAdjust="spacing" textLength="38.0518" x="1528.2098" y="974.8914">Estilo</text><text fill="#000000" font-family="sans-serif" font-size="14" font-weight="700" lengthAdjust="spacing" textLength="76.8457" x="1651.8013" y="974.8914">Significado</text><text fill="#000000" font-family="sans-serif" font-size="14" lengthAdjust="spacing" textLength="3.64" x="1524.5699" y="993.9593">&#160;</text><text fill="#2E86C1" font-family="sans-serif" font-size="14" lengthAdjust="spacing" textLength="116.3115" x="1528.2098" y="993.9593">. . . azul punteado</text><text fill="#000000" font-family="sans-serif" font-size="14" lengthAdjust="spacing" textLength="3.64" x="1644.5214" y="993.9593">&#160;</text><text fill="#000000" font-family="sans-serif" font-size="14" lengthAdjust="spacing" textLength="207.4792" x="1651.8013" y="993.9593">Trafico de dominio HTTP (axios)</text><text fill="#000000" font-family="sans-serif" font-size="14" lengthAdjust="spacing" textLength="3.64" x="1524.5699" y="1013.0272">&#160;</text><text fill="#7D3C98" font-family="sans-serif" font-size="14" lengthAdjust="spacing" text-decoration="underline" textLength="95.3957" x="1531.8498" y="1013.0272">morado solido</text><text fill="#000000" font-family="sans-serif" font-size="14" lengthAdjust="spacing" textLength="3.64" x="1627.2455" y="1013.0272">&#160;</text><text fill="#000000" font-family="sans-serif" font-size="14" lengthAdjust="spacing" textLength="3.64" x="1648.1614" y="1013.0272">&#160;</text><text fill="#000000" font-family="sans-serif" font-size="14" font-weight="700" lengthAdjust="spacing" textLength="49.9798" x="1651.8013" y="1013.0272">NUEVO</text><text fill="#000000" font-family="sans-serif" font-size="14" lengthAdjust="spacing" textLength="253.385" x="1705.4211" y="1013.0272">gRPC sincrono con contrato (Avance 2)</text><text fill="#000000" font-family="sans-serif" font-size="14" lengthAdjust="spacing" textLength="3.64" x="1524.5699" y="1032.0951">&#160;</text><text fill="#B9770E" font-family="sans-serif" font-size="14" lengthAdjust="spacing" text-decoration="underline" textLength="86.3097" x="1531.8498" y="1032.0951">ambar solido</text><text fill="#000000" font-family="sans-serif" font-size="14" lengthAdjust="spacing" textLength="3.64" x="1618.1595" y="1032.0951">&#160;</text><text fill="#000000" font-family="sans-serif" font-size="14" lengthAdjust="spacing" textLength="3.64" x="1648.1614" y="1032.0951">&#160;</text><text fill="#000000" font-family="sans-serif" font-size="14" font-weight="700" lengthAdjust="spacing" textLength="49.9798" x="1651.8013" y="1032.0951">NUEVO</text><text fill="#000000" font-family="sans-serif" font-size="14" lengthAdjust="spacing" textLength="294.2089" x="1705.4211" y="1032.0951">RabbitMQ asincrono, cola durable (Avance 2)</text><text fill="#000000" font-family="sans-serif" font-size="14" lengthAdjust="spacing" textLength="3.64" x="1524.5699" y="1051.163">&#160;</text><text fill="#C0392B" font-family="sans-serif" font-size="14" lengthAdjust="spacing" textLength="26.3339" x="1528.2098" y="1051.163">rojo</text><text fill="#000000" font-family="sans-serif" font-size="14" lengthAdjust="spacing" textLength="3.64" x="1554.5437" y="1051.163">&#160;</text><text fill="#000000" font-family="sans-serif" font-size="14" lengthAdjust="spacing" textLength="318.7087" x="1651.8013" y="1051.163">TCP benchmark sincrono (Avance 1, conservado)</text><text fill="#000000" font-family="sans-serif" font-size="14" lengthAdjust="spacing" textLength="3.64" x="1524.5699" y="1070.2309">&#160;</text><text fill="#1E8449" font-family="sans-serif" font-size="14" lengthAdjust="spacing" textLength="37.2959" x="1528.2098" y="1070.2309">verde</text><text fill="#000000" font-family="sans-serif" font-size="14" lengthAdjust="spacing" textLength="3.64" x="1565.5057" y="1070.2309">&#160;</text><text fill="#000000" font-family="sans-serif" font-size="14" lengthAdjust="spacing" textLength="336.9927" x="1651.8013" y="1070.2309">Redis benchmark asincrono (Avance 1, conservado)</text><line style="stroke:#000000;stroke-width:1;" x1="1524.5699" x2="2003.27" y1="959.9254" y2="959.9254"/><line style="stroke:#000000;stroke-width:1;" x1="1524.5699" x2="2003.27" y1="978.9933" y2="978.9933"/><line style="stroke:#000000;stroke-width:1;" x1="1524.5699" x2="2003.27" y1="998.0613" y2="998.0613"/><line style="stroke:#000000;stroke-width:1;" x1="1524.5699" x2="2003.27" y1="1017.1292" y2="1017.1292"/><line style="stroke:#000000;stroke-width:1;" x1="1524.5699" x2="2003.27" y1="1036.1971" y2="1036.1971"/><line style="stroke:#000000;stroke-width:1;" x1="1524.5699" x2="2003.27" y1="1055.265" y2="1055.265"/><line style="stroke:#000000;stroke-width:1;" x1="1524.5699" x2="2003.27" y1="1074.3329" y2="1074.3329"/><line style="stroke:#000000;stroke-width:1;" x1="1524.5699" x2="1524.5699" y1="959.9254" y2="1074.3329"/><line style="stroke:#000000;stroke-width:1;" x1="1648.1614" x2="1648.1614" y1="959.9254" y2="1074.3329"/><line style="stroke:#000000;stroke-width:1;" x1="2003.27" x2="2003.27" y1="959.9254" y2="1074.3329"/></g><?plantuml-src fLTRSzeu57xthpX37m9fmZLNfcMM4DFjJj9G8Ds7pGuZP05gR8dAScXsk_zzZoJR64BITWepZ2qTVJgNJvyEU_3s5pxU7a2Fp1Z-HCiaXaFegYy9rupgH17eFX116JIDsNmuw46PIg4LqR82ho5cyqG44d10n4kfD0CISq6L51BAGpATSdtziM8MntAg6B0Gnhr1RSW27aE0Rob-0yfV4ePuWF0nKpXgLmsP29XgmqBhPTokrLQhLNKP4g6JAAnI6TMo5u2o1FPLCn5pAM1WXc-lhu09-3I2dWoOmVkbH7cQwv3zIBBkX4lL0CCC99frOA1aa50jOvEsB34R5k_50nEQA2uhT-8xsVAy-9wB9L4ameH5IobmwKW_ediAVI5Y7hA2IRmWWLnnCOSP2UFYJC1c90dr63FN3VbSH8W357-OAbXrbPAhyOBJUy7Y61hLvgxzuLyFu48gB5XFXbB1gzRHqVcnRqO9lPyhYLn9P_nUlzvlUFyLNI6QJ0aou2TW-fVz4x-r0OCqIduImx-uh6zW4ANvZD2VY-YYVzo_G1WF5-90gHToaySxKHx8M4T4G0reei9A2Sy8K3VhUUlqbRg3z_2EQBOYZtVYz_5u0ErMlLw7SeqiEPBYZp_7I9vt2L5137ZQGCdGWirNdhT4XyYSGUcQu_4pHuXJBWrj890H5roMR3Y5_Qv7QreMDcoazBKO0MxJFgxNZnjsfoNQFmLn92v0u0b0uaBxo3wciJhzU0tBP1hoUC5KVWuSD7kAl3uJ1V3M6XmVtU68asbC5PyoXTkXWYJHDZmN3xOuMMbB68gMjMMMWAfznsfb-kRSDVwODO6iP0dGqlDoifPCSUUAZJvUOPwEMXXkESUSn7J18b8nOov7XH6UnvODkWtcdgDmoKNMFccTdXk0P5h3A0zo3N3coXZbAp9TQH-Vd9h4ov10WCeq3P6758LhGgrmJL9t78HTvQ4y7kOVLCmq2-i45AOzcmQe_lNgzBBLEpyx20WMDFYxsh4CWJQyeUPOjDFv3keC5oodr9kQdUwyXCC2U1OdPLGEi-cxRrmFID7VZ8A7ABJp5U9QDWtzqNXhxLYH6QUoS6oWR6rhGBvo8zy5L4IgFWsvwP-Tz1eTkoh5o1tDLcm6jsC5NWqtep7Kqa9LjX6GFV23UvhDiYMxLpoGa0T4rG8M6_OJ1R6MzFwPz0wOYdcCDotbP8iJWKqmKjW6c3vRLzFdJQGFj_wdc_pMRASDHjP07C2wrIXkWz27EM6cCWp-FdoETc-c7OjvCqLtcShKhim3JEYqamSe9793yVb2Wvmvh5V-sMNNxtjPs-FAWKASbmIdiklRIawe2GWPuSMDgi9GV95VtIj_X7OaNAifCYjNNQlYkU0u2QgY_OYRkp_J4KJ5riQa7DvsOBYa_bVAbjhqEHzknfF-pUs7Iro4QcHuds0kYUFtKRC9PQqUQvHekgW0PXQmMPfYWLdg4RfPzR390fE2xvHdtRQGOetM6lEaJc0gTN5-UbhtyqevkIdKoisRMh68w_AUos-LAePTIzMPHr_sDYkMeZo5jspRYVwRRmHtG3GsDyBsiUQQs464aCqi3z8ziWu12WbugV4rnEYPh5pU3hiNLtuRon7m6LFkn63zdR9dYexcM0til6BocQ4qkDC5916c9SOfvwaXZp4rSvGOFNuq9SUG59iJGp4a7LwTsFwfPqkQjzjPcnt8jkan4OQIW0byX_8KNnOHKVVROcVItQktpfiNziYnuebpuvr6nSBb4DNuKL0evvVMXYfjm6tAKmhNV09dXEaGxqjwlmlr1wBTIFvBmTfm6_uPjdoMj-uwpZrqCpivIqpGUvLT3ZgK3U1jngR0MtJT4Ml8vgRCLhUG6T_UWXzh7ahpDC9cdkDDPWhwpKnk2tyLp9Vyaw3E97Wrec66ZCOxha6hAENq4jo4JDLsCe58AhDZBF52aPD90N5_tyh9_hxJq_nV8fPchO1PbCtj7T9JZ3iGArylRf0VqsTawlbjKjOf-NaZ6KK6hZtFIt9GuDSsObhC1uP_8WgGZeHhKF9zL2orAxZtFm00?></g></svg>