<svg xmlns="http://www.w3.org/2000/svg" xmlns:xlink="http://www.w3.org/1999/xlink" contentStyleType="text/css" data-diagram-type="DESCRIPTION" height="1020px" preserveAspectRatio="none" style="width:1144px;height:1020px;background:#FFFFFF;" version="1.1" viewBox="0 0 1144 1020" width="1144px" zoomAndPan="magnify"><?plantuml $version$?><defs/><g><g class="title" data-source-line="7"><text fill="#000000" font-family="sans-serif" font-size="14" font-weight="700" lengthAdjust="spacing" textLength="258.145" x="439.6706" y="24.9659">Cafe Campus - Arquitectura Avance 1</text><text fill="#000000" font-family="sans-serif" font-size="14" font-weight="700" lengthAdjust="spacing" textLength="352.7426" x="392.3718" y="44.0339">Camino sincrono (TCP) vs camino asincrono (Redis)</text></g><!--cluster Microservicios de dominio--><g class="cluster" data-qualified-name="Microservicios de dominio" data-source-line="30" id="ent0003"><path d="M91.8,383.9758 L275.3873,383.9758 A3.75,3.75 0 0 1 277.8873,386.4758 L284.8873,409.0438 L571.8,409.0438 A2.5,2.5 0 0 1 574.3,411.5438 L574.3,717.4558 A2.5,2.5 0 0 1 571.8,719.9558 L91.8,719.9558 A2.5,2.5 0 0 1 89.3,717.4558 L89.3,386.4758 A2.5,2.5 0 0 1 91.8,383.9758" fill="none" style="stroke:#000000;stroke-width:1.5;"/><line style="stroke:#000000;stroke-width:1.5;" x1="89.3" x2="284.8873" y1="409.0438" y2="409.0438"/><text fill="#000000" font-family="sans-serif" font-size="14" font-weight="700" lengthAdjust="spacing" textLength="182.5873" x="93.3" y="400.9418">Microservicios de dominio</text></g><!--entity prod--><g class="entity" data-qualified-name="Microservicios de dominio.prod" data-source-line="31" id="ent0004"><rect fill="#ECF0F1" height="58.1358" rx="2.5" ry="2.5" style="stroke:#34495E;stroke-width:0.5;" width="110.9577" x="119.82" y="431.5158"/><text fill="#000000" font-family="sans-serif" font-size="14" lengthAdjust="spacing" textLength="90.9577" x="129.82" y="456.4818">MS Productos</text><text fill="#000000" font-family="sans-serif" font-size="14" lengthAdjust="spacing" textLength="73.8357" x="138.381" y="475.5497">HTTP :3001</text></g><!--entity ped--><g class="entity" data-qualified-name="Microservicios de dominio.ped" data-source-line="32" id="ent0005"><rect fill="#ECF0F1" height="77.2038" rx="2.5" ry="2.5" style="stroke:#34495E;stroke-width:0.5;" width="96.3977" x="281.1" y="421.9758"/><text fill="#000000" font-family="sans-serif" font-size="14" lengthAdjust="spacing" textLength="76.3977" x="291.1" y="446.9418">MS Pedidos</text><text fill="#000000" font-family="sans-serif" font-size="14" lengthAdjust="spacing" textLength="73.8357" x="292.381" y="466.0097">HTTP :3002</text><text fill="#000000" font-family="sans-serif" font-size="14" lengthAdjust="spacing" textLength="64.5257" x="297.036" y="485.0776">TCP :4002</text></g><!--entity inv--><g class="entity" data-qualified-name="Microservicios de dominio.inv" data-source-line="33" id="ent0006"><rect fill="#ECF0F1" height="96.2717" rx="2.5" ry="2.5" style="stroke:#34495E;stroke-width:0.5;" width="128.2476" x="361.18" y="607.6758"/><text fill="#000000" font-family="sans-serif" font-size="14" lengthAdjust="spacing" textLength="91.8537" x="379.377" y="632.6418">MS Inventario</text><text fill="#000000" font-family="sans-serif" font-size="14" lengthAdjust="spacing" textLength="73.8357" x="388.3859" y="651.7097">HTTP :3003</text><text fill="#000000" font-family="sans-serif" font-size="14" lengthAdjust="spacing" textLength="64.5257" x="393.0409" y="670.7776">TCP :4003</text><text fill="#000000" font-family="sans-serif" font-size="14" lengthAdjust="spacing" textLength="108.2476" x="371.18" y="689.8455">Redis subscriber</text></g><!--entity cliente--><g class="entity" data-qualified-name="cliente" data-source-line="26" id="ent0001"><ellipse cx="520.3048" cy="73.1358" fill="#F1F1F1" rx="8" ry="8" style="stroke:#181818;stroke-width:0.5;"/><path d="M520.3048,81.1358 L520.3048,108.1358 M507.3048,89.1358 L533.3048,89.1358 M520.3048,108.1358 L507.3048,123.1358 M520.3048,108.1358 L533.3048,123.1358" fill="none" style="stroke:#181818;stroke-width:0.5;"/><text fill="#000000" font-family="sans-serif" font-size="14" lengthAdjust="spacing" textLength="45.5698" x="497.5199" y="139.6018">Cliente</text><text fill="#000000" font-family="sans-serif" font-size="14" lengthAdjust="spacing" textLength="103.9496" x="468.33" y="158.6697">(Postman / curl)</text></g><!--entity gw--><g class="entity" data-qualified-name="gw" data-source-line="28" id="ent0002"><rect fill="#ECF0F1" height="77.2038" rx="2.5" ry="2.5" style="stroke:#34495E;stroke-width:0.5;" width="155.7155" x="442.45" y="241.7758"/><text fill="#000000" font-family="sans-serif" font-size="14" lengthAdjust="spacing" textLength="82.7957" x="478.9099" y="266.7418">API Gateway</text><text fill="#000000" font-family="sans-serif" font-size="14" lengthAdjust="spacing" textLength="111.1595" x="464.728" y="285.8097">HTTP :3000 (/api)</text><text fill="#000000" font-family="sans-serif" font-size="14" lengthAdjust="spacing" textLength="135.7155" x="452.45" y="304.8776">JWT + Guards por rol</text></g><!--entity pg--><g class="entity" data-qualified-name="pg" data-source-line="36" id="ent0007"><path d="M6,784.9358 C6,774.9358 82.3037,774.9358 82.3037,774.9358 C82.3037,774.9358 158.6075,774.9358 158.6075,784.9358 L158.6075,870.2075 C158.6075,880.2075 82.3037,880.2075 82.3037,880.2075 C82.3037,880.2075 6,880.2075 6,870.2075 L6,784.9358" fill="#FDF6E3" style="stroke:#34495E;stroke-width:0.5;"/><path d="M6,784.9358 C6,794.9358 82.3037,794.9358 82.3037,794.9358 C82.3037,794.9358 158.6075,794.9358 158.6075,784.9358" fill="none" style="stroke:#34495E;stroke-width:0.5;"/><text fill="#000000" font-family="sans-serif" font-size="14" lengthAdjust="spacing" textLength="116.3676" x="24.12" y="813.9018">PostgreSQL :5432</text><text fill="#000000" font-family="sans-serif" font-size="14" lengthAdjust="spacing" textLength="132.6075" x="16" y="832.9697">(productos_schema)</text><text fill="#000000" font-family="sans-serif" font-size="14" lengthAdjust="spacing" textLength="118.0475" x="23.28" y="852.0376">(pedidos_schema)</text><text fill="#000000" font-family="sans-serif" font-size="14" lengthAdjust="spacing" textLength="132.2295" x="16.189" y="871.1055">(inventario_schema)</text></g><!--entity redis--><g class="entity" data-qualified-name="redis" data-source-line="37" id="ent0008"><path d="M904.83,436.5158 L989.7857,436.5158 C994.7857,436.5158 994.7857,460.5838 994.7857,460.5838 C994.7857,460.5838 994.7857,484.6517 989.7857,484.6517 L904.83,484.6517 C899.83,484.6517 899.83,460.5838 899.83,460.5838 C899.83,460.5838 899.83,436.5158 904.83,436.5158" fill="#FDEBD0" style="stroke:#34495E;stroke-width:0.5;"/><path d="M989.7857,436.5158 C984.7857,436.5158 984.7857,460.5838 984.7857,460.5838 C984.7857,484.6517 989.7857,484.6517 989.7857,484.6517" fill="none" style="stroke:#34495E;stroke-width:0.5;"/><text fill="#000000" font-family="sans-serif" font-size="14" lengthAdjust="spacing" textLength="74.9557" x="904.83" y="456.4818">Redis :6379</text><text fill="#000000" font-family="sans-serif" font-size="14" lengthAdjust="spacing" textLength="63.4478" x="910.584" y="475.5497">(pub/sub)</text></g><g class="entity" data-qualified-name="GMN19" data-source-line="57" id="ent0020"><path d="M590.75,597.6958 L590.75,651.8158 L489.69,655.8158 L590.75,659.8158 L590.75,713.9319 A0,0 0 0 0 590.75,713.9319 L893.8632,713.9319 A0,0 0 0 0 893.8632,713.9319 L893.8632,607.6958 L883.8632,597.6958 L590.75,597.6958 A0,0 0 0 0 590.75,597.6958" fill="#FADBD8" style="stroke:#181818;stroke-width:0.5;"/><path d="M883.8632,597.6958 L883.8632,607.6958 L893.8632,607.6958 L883.8632,597.6958" fill="#FADBD8" style="stroke:#181818;stroke-width:0.5;"/><text fill="#000000" font-family="sans-serif" font-size="13" lengthAdjust="spacing" textLength="236.0672" x="619.773" y="616.5928">SINCRONO (GET /api/benchmark/sync)</text><text fill="#000000" font-family="sans-serif" font-size="13" lengthAdjust="spacing" textLength="174.0311" x="650.7911" y="634.2989">Gateway espera a Pedidos, y</text><text fill="#000000" font-family="sans-serif" font-size="13" lengthAdjust="spacing" textLength="174.0831" x="650.765" y="652.0049">Pedidos espera a Inventario.</text><text fill="#000000" font-family="sans-serif" font-size="13" lengthAdjust="spacing" textLength="236.3402" x="619.6365" y="669.7109">Las latencias se ACUMULAN (~104 ms).</text><text fill="#000000" font-family="sans-serif" font-size="13" lengthAdjust="spacing" textLength="164.6061" x="655.5035" y="687.4169">Si Inventario cae =&gt; toda la</text><text fill="#000000" font-family="sans-serif" font-size="13" lengthAdjust="spacing" textLength="282.1132" x="596.75" y="705.1229">cadena falla con 503 (acoplamiento temporal).</text></g><g class="entity" data-qualified-name="GMN24" data-source-line="69" id="ent0025"><path d="M589.94,402.4658 L589.94,518.7019 A0,0 0 0 0 589.94,518.7019 L864.6742,518.7019 A0,0 0 0 0 864.6742,518.7019 L864.6742,464.5758 L899.61,460.5758 L864.6742,456.5758 L864.6742,412.4658 L854.6742,402.4658 L589.94,402.4658 A0,0 0 0 0 589.94,402.4658" fill="#D5F5E3" style="stroke:#181818;stroke-width:0.5;"/><path d="M854.6742,402.4658 L854.6742,412.4658 L864.6742,412.4658 L854.6742,402.4658" fill="#D5F5E3" style="stroke:#181818;stroke-width:0.5;"/><text fill="#000000" font-family="sans-serif" font-size="13" lengthAdjust="spacing" textLength="251.6672" x="596.9735" y="421.3628">ASINCRONO (GET /api/benchmark/async)</text><text fill="#000000" font-family="sans-serif" font-size="13" lengthAdjust="spacing" textLength="190.0341" x="627.79" y="439.0689">El Gateway responde apenas el</text><text fill="#000000" font-family="sans-serif" font-size="13" lengthAdjust="spacing" textLength="206.6222" x="619.496" y="456.7749">broker acepta el evento (~1.5 ms).</text><text fill="#000000" font-family="sans-serif" font-size="13" lengthAdjust="spacing" textLength="185.6402" x="629.987" y="474.4809">El consumidor procesa aparte.</text><text fill="#000000" font-family="sans-serif" font-size="13" lengthAdjust="spacing" textLength="185.6272" x="629.9935" y="492.1869">Si Inventario cae =&gt; la peticion</text><text fill="#000000" font-family="sans-serif" font-size="13" lengthAdjust="spacing" textLength="253.7342" x="595.94" y="509.8929">se sigue aceptando (desacople temporal).</text></g><!--link cliente to gw--><g class="link" data-entity-1="ent0001" data-entity-2="ent0002" data-link-type="dependency" data-source-line="40" id="lnk9"><path d="M520.3,163.2258 C520.3,188.1758 520.3,213.1358 520.3,236.3858" fill="none" id="cliente-to-gw" style="stroke:#181818;stroke-width:1.2;"/><polygon fill="#181818" points="520.3,241.3858,524.3,232.3858,520.3,236.3858,516.3,232.3858,520.3,241.3858" style="stroke:#181818;stroke-width:1.2;stroke-linejoin:miter;stroke-miterlimit:10;"/><text fill="#000000" font-family="sans-serif" font-size="13" lengthAdjust="spacing" textLength="65.0131" x="521.3" y="207.6728">HTTP REST</text></g><!--link gw to prod--><g class="link" data-entity-1="ent0002" data-entity-2="ent0004" data-link-type="dependency" data-source-line="43" id="lnk10"><path d="M442.12,290.4558 C364.17,300.9558 251.41,320.5158 218.3,348.9758 C194.09,369.7958 184.3323,401.0279 179.6923,426.3179" fill="none" id="gw-to-prod" style="stroke:#181818;stroke-width:1.2;stroke-dasharray:7,7;"/><polygon fill="#181818" points="178.79,431.2358,184.3485,423.1054,179.6923,426.3179,176.4798,421.6618,178.79,431.2358" style="stroke:#181818;stroke-width:1.2;stroke-linejoin:miter;stroke-miterlimit:10;"/><text fill="#2E86C1" font-family="sans-serif" font-size="13" lengthAdjust="spacing" textLength="85.9561" x="219.3" y="363.8728">HTTP dominio</text></g><!--link gw to ped--><g class="link" data-entity-1="ent0002" data-entity-2="ent0005" data-link-type="dependency" data-source-line="44" id="lnk11"><path d="M508.97,319.2058 C502.72,335.5358 493.67,354.0458 481.3,367.9758 C452.88,400.0158 415.0315,422.1313 382.2415,437.6113" fill="none" id="gw-to-ped" style="stroke:#181818;stroke-width:1.2;stroke-dasharray:7,7;"/><polygon fill="#181818" points="377.72,439.7458,387.5663,439.5208,382.2415,437.6113,384.151,432.2865,377.72,439.7458" style="stroke:#181818;stroke-width:1.2;stroke-linejoin:miter;stroke-miterlimit:10;"/><text fill="#2E86C1" font-family="sans-serif" font-size="13" lengthAdjust="spacing" textLength="85.9561" x="495.81" y="363.8728">HTTP dominio</text></g><!--link gw to ped--><g class="link" data-entity-1="ent0002" data-entity-2="ent0005" data-link-type="dependency" data-source-line="54" id="lnk17"><path d="M442.09,286.7258 C399.24,294.1258 349.46,311.0158 322.3,348.9758 C307.47,369.7158 308.6583,393.7649 314.4183,416.8249" fill="none" id="gw-to-ped-1" style="stroke:#C0392B;stroke-width:2;"/><polygon fill="#C0392B" points="315.63,421.6758,317.3297,411.9748,314.4183,416.8249,309.5682,413.9135,315.63,421.6758" style="stroke:#C0392B;stroke-width:2;stroke-linejoin:miter;stroke-miterlimit:10;"/><text fill="#C0392B" font-family="sans-serif" font-size="13" font-weight="700" lengthAdjust="spacing" textLength="149.2011" x="323.3" y="363.8728">1) TCP benchmark.sync</text></g><!--link gw to inv--><g class="link" data-entity-1="ent0002" data-entity-2="ent0006" data-link-type="dependency" data-source-line="45" id="lnk12"><path d="M598.6,285.8958 C737.1,294.7058 1013.5,316.2058 1042.3,348.9758 C1047.88,355.3258 1043.13,359.5758 1042.3,367.9758 C1033.27,459.6058 1064.03,516.8058 987.3,567.6958 C910.44,618.6858 663.32,577.5358 573.3,597.6958 C545.08,604.0158 519.7463,612.8693 494.2063,623.3393" fill="none" id="gw-to-inv" style="stroke:#181818;stroke-width:1.2;stroke-dasharray:7,7;"/><polygon fill="#181818" points="489.58,625.2358,499.4247,625.5231,494.2063,623.3393,496.3902,618.121,489.58,625.2358" style="stroke:#181818;stroke-width:1.2;stroke-linejoin:miter;stroke-miterlimit:10;"/><text fill="#2E86C1" font-family="sans-serif" font-size="13" lengthAdjust="spacing" textLength="85.9561" x="1042.53" y="465.9728">HTTP dominio</text></g><!--link ped to inv--><g class="link" data-entity-1="ent0005" data-entity-2="ent0006" data-link-type="dependency" data-source-line="46" id="lnk13"><path d="M281.3,499.5258 C270.83,506.6058 259.52,513.4358 248.3,518.6958 C199.49,541.6258 105.16,524.3958 137.3,567.6958 C164.04,603.7158 279.6097,629.7266 356.0197,643.5366" fill="none" id="ped-to-inv" style="stroke:#181818;stroke-width:1.2;stroke-dasharray:7,7;"/><polygon fill="#181818" points="360.94,644.4258,352.7949,638.8889,356.0197,643.5366,351.3721,646.7614,360.94,644.4258" style="stroke:#181818;stroke-width:1.2;stroke-linejoin:miter;stroke-miterlimit:10;"/><text fill="#2E86C1" font-family="sans-serif" font-size="13" lengthAdjust="spacing" textLength="177.8271" x="138.3" y="563.5928">HTTP validar/descontar stock</text></g><!--link ped to inv--><g class="link" data-entity-1="ent0005" data-entity-2="ent0006" data-link-type="dependency" data-source-line="55" id="lnk18"><path d="M348.04,499.2958 C363.37,530.1558 382.9252,569.5081 399.4552,602.7781" fill="none" id="ped-to-inv-1" style="stroke:#C0392B;stroke-width:2;"/><polygon fill="#C0392B" points="401.68,607.2558,401.2577,597.416,399.4552,602.7781,394.0932,600.9756,401.68,607.2558" style="stroke:#C0392B;stroke-width:2;stroke-linejoin:miter;stroke-miterlimit:10;"/><text fill="#C0392B" font-family="sans-serif" font-size="13" font-weight="700" lengthAdjust="spacing" textLength="197.0022" x="381.18" y="563.5928">2) TCP benchmark.stock-check</text></g><!--link prod to pg--><g class="link" data-entity-1="ent0004" data-entity-2="ent0007" data-link-type="dependency" data-source-line="49" id="lnk14"><path d="M119.52,487.4858 C95.43,501.8358 69.74,522.2058 56.3,548.6958 C19.86,620.5358 40.1118,711.5215 59.9118,769.8115" fill="none" id="prod-to-pg" style="stroke:#181818;stroke-width:1.2;"/><polygon fill="#181818" points="61.52,774.5458,62.4128,764.7375,59.9118,769.8115,54.8379,767.3106,61.52,774.5458" style="stroke:#181818;stroke-width:1.2;stroke-linejoin:miter;stroke-miterlimit:10;"/></g><!--link ped to pg--><g class="link" data-entity-1="ent0005" data-entity-2="ent0007" data-link-type="dependency" data-source-line="50" id="lnk15"><path d="M281.86,499.4958 C271.26,506.6658 259.75,513.5258 248.3,518.6958 C195.83,542.3758 161.12,506.1858 122.3,548.6958 C66.35,609.9758 66.584,707.6757 73.384,769.5757" fill="none" id="ped-to-pg" style="stroke:#181818;stroke-width:1.2;"/><polygon fill="#181818" points="73.93,774.5458,76.9233,765.1629,73.384,769.5757,68.9711,766.0364,73.93,774.5458" style="stroke:#181818;stroke-width:1.2;stroke-linejoin:miter;stroke-miterlimit:10;"/></g><!--link inv to pg--><g class="link" data-entity-1="ent0006" data-entity-2="ent0007" data-link-type="dependency" data-source-line="51" id="lnk16"><path d="M360.79,688.7458 C303.44,717.1258 224.0112,756.4381 163.2912,786.4881" fill="none" id="inv-to-pg" style="stroke:#181818;stroke-width:1.2;"/><polygon fill="#181818" points="158.81,788.7058,168.6504,788.2989,163.2912,786.4881,165.1021,781.1289,158.81,788.7058" style="stroke:#181818;stroke-width:1.2;stroke-linejoin:miter;stroke-miterlimit:10;"/></g><!--link gw to redis--><g class="link" data-entity-1="ent0002" data-entity-2="ent0008" data-link-type="dependency" data-source-line="66" id="lnk22"><path d="M598.52,301.1558 C703.13,327.6958 876.26,371.9958 882.3,375.9758 C905.33,391.1558 921.1435,412.9429 932.3935,431.9529" fill="none" id="gw-to-redis" style="stroke:#1E8449;stroke-width:2;"/><polygon fill="#1E8449" points="934.94,436.2558,933.7987,426.4733,932.3935,431.9529,926.914,430.5477,934.94,436.2558" style="stroke:#1E8449;stroke-width:2;stroke-linejoin:miter;stroke-miterlimit:10;"/><text fill="#1E8449" font-family="sans-serif" font-size="13" font-weight="700" lengthAdjust="spacing" textLength="178.7241" x="855.53" y="363.8728">emit('pedido.creado.async')</text></g><!--link redis to inv--><g class="link" data-entity-1="ent0008" data-entity-2="ent0006" data-link-type="dependency" data-source-line="67" id="lnk23"><path d="M925.84,485.1158 C914.03,496.7658 898.51,510.1458 882.3,518.6958 C756.94,584.8658 708.33,554.5458 573.3,597.6958 C545.63,606.5458 520.2788,615.9551 494.5688,626.1351" fill="none" id="redis-to-inv" style="stroke:#1E8449;stroke-width:2;"/><polygon fill="#1E8449" points="489.92,627.9758,499.7605,628.3816,494.5688,626.1351,496.8153,620.9434,489.92,627.9758" style="stroke:#1E8449;stroke-width:2;stroke-linejoin:miter;stroke-miterlimit:10;"/><text fill="#1E8449" font-family="sans-serif" font-size="13" font-weight="700" lengthAdjust="spacing" textLength="168.2851" x="809.97" y="563.5928">@EventPattern (consume)</text></g><g class="legend" data-source-line="77"><rect fill="#DDDDDD" height="90.2717" rx="7.5" ry="7.5" style="stroke:#000000;stroke-width:1;" width="403.0625" x="722.4236" y="911.2075"/><text fill="#000000" font-family="sans-serif" font-size="14" font-weight="700" lengthAdjust="spacing" textLength="38.0518" x="731.0636" y="933.1734">Estilo</text><text fill="#000000" font-family="sans-serif" font-size="14" font-weight="700" lengthAdjust="spacing" textLength="76.8457" x="854.6551" y="933.1734">Significado</text><text fill="#000000" font-family="sans-serif" font-size="14" lengthAdjust="spacing" textLength="3.64" x="727.4236" y="952.2414">&#160;</text><text fill="#2E86C1" font-family="sans-serif" font-size="14" lengthAdjust="spacing" textLength="116.3115" x="731.0636" y="952.2414">. . . azul punteado</text><text fill="#000000" font-family="sans-serif" font-size="14" lengthAdjust="spacing" textLength="3.64" x="847.3752" y="952.2414">&#160;</text><text fill="#000000" font-family="sans-serif" font-size="14" lengthAdjust="spacing" textLength="207.4792" x="854.6551" y="952.2414">Trafico de dominio HTTP (axios)</text><text fill="#000000" font-family="sans-serif" font-size="14" lengthAdjust="spacing" textLength="3.64" x="727.4236" y="971.3093">&#160;</text><text fill="#C0392B" font-family="sans-serif" font-size="14" lengthAdjust="spacing" text-decoration="underline" textLength="69.4538" x="734.7036" y="971.3093">rojo solido</text><text fill="#000000" font-family="sans-serif" font-size="14" lengthAdjust="spacing" textLength="3.64" x="804.1574" y="971.3093">&#160;</text><text fill="#000000" font-family="sans-serif" font-size="14" lengthAdjust="spacing" textLength="242.815" x="854.6551" y="971.3093">Camino SINCRONO benchmark (TCP)</text><text fill="#000000" font-family="sans-serif" font-size="14" lengthAdjust="spacing" textLength="3.64" x="727.4236" y="990.3772">&#160;</text><text fill="#1E8449" font-family="sans-serif" font-size="14" lengthAdjust="spacing" text-decoration="underline" textLength="80.4157" x="734.7036" y="990.3772">verde solido</text><text fill="#000000" font-family="sans-serif" font-size="14" lengthAdjust="spacing" textLength="3.64" x="815.1193" y="990.3772">&#160;</text><text fill="#000000" font-family="sans-serif" font-size="14" lengthAdjust="spacing" textLength="262.1909" x="854.6551" y="990.3772">Camino ASINCRONO benchmark (Redis)</text><line style="stroke:#000000;stroke-width:1;" x1="727.4236" x2="1120.4861" y1="918.2075" y2="918.2075"/><line style="stroke:#000000;stroke-width:1;" x1="727.4236" x2="1120.4861" y1="937.2754" y2="937.2754"/><line style="stroke:#000000;stroke-width:1;" x1="727.4236" x2="1120.4861" y1="956.3433" y2="956.3433"/><line style="stroke:#000000;stroke-width:1;" x1="727.4236" x2="1120.4861" y1="975.4113" y2="975.4113"/><line style="stroke:#000000;stroke-width:1;" x1="727.4236" x2="1120.4861" y1="994.4792" y2="994.4792"/><line style="stroke:#000000;stroke-width:1;" x1="727.4236" x2="727.4236" y1="918.2075" y2="994.4792"/><line style="stroke:#000000;stroke-width:1;" x1="851.0152" x2="851.0152" y1="918.2075" y2="994.4792"/><line style="stroke:#000000;stroke-width:1;" x1="1120.4861" x2="1120.4861" y1="918.2075" y2="994.4792"/></g><?plantuml-src fLPjS-8s4FxkNx53FiIUNZ24a2PCZYaX9fTEagE1j1-QJaR80bHioIV9S6cl_UrTsSQOm7KkSsGc8sjt7sdtsHSTmlll-3c707qoPVWlJb8DHz1Jdr9k63Mf8j1R4a4PDArQZyea8Z5dmaWmB4wa8X6yG4GC4vGJS3KNL4aXOQc1h3yyQ_l0HCXK1-R69BhZ-wlLgevWmgHnLASozjSV0Au4zXaHDPS2XdRxyUuMc81VHz2N8RDut-MnOxY9sBTu_IHGpj6VqZ5tt1zwrZsQ2yX6yi12hZt7qGik4g983EXN8WM6QsHUy425w4JC8bPHqNCIoXKNCvYII5Sb8PkID39ZZ4KluZCH8mvG_CTKHQkdb5oDvvmk1DCQclNZVUV3tmx0fLH8GLz6Ki51w-Jal1tONK8NCoLJ4HQIe3ze39hEFzMh44CcHBEtm0ok1gT1QmlcKyhIDs84brSDn708DRXHwqSs-TYJS8TIcvW8y86cAl9gI0JGNEeu6xzhlU4DN6D-hiZBa_Wm7W-Xqseq6k3w9E7Ua_Zvjp7y0DSfKQ46J6XGCih0PYl7IV12PCQWTiUHOytKabCkDL83eKJwkQnbxbJEknl1KCamnVlgoe7D33D1oQuwfasufNpy933Be7E2ozoExPhTY2KkYUAoOjdQME8oIqZGwKHJnITCPLXSB6r0IqfhDf8pnKQ_t4AdVTB2mzraxS6pfdCM4y_kvTUixF3o1klD_B8p9oUwbf_VEMtzU6u1qecFTycLb1KvMCX7vGy2OHG9IMNBAHZ5hIuI0Xt8F7q8HkDNjcD5ffpA2ZFWPhe-aCz8cLT5HQHwlPknWP0Nr2PRv-0uE3ljDxkPLO5nuMUoRcd1GdYR1SReMoqi-DfalyMIH3maoW-Pfj967hIHT54YR8Tao9JckkZC5Uypjsr0aQZCeMATNRLORoCLFN1qSzz_-7Z_4Tm9WivZeXOUtjGc77wJa0biPQ_Y34U_7_GRhVFZotSJ6OL_7EL1tFYN2xiNasxJow1AxBf-4VJ2dtIt8hIBjnsl3Txn3fuDrX5cgWrP1LP8p335PtC3Sfh17GnwLvTNPrXp6v-lWp7Odk6NWBwze8TAHNy1fXE6muEiI_eTlA2q-DX8DvLRH_4jLiDwW6AnCkZr7-yURtltuFxRR9n0h3shDk8LEnm-3DvtmKWibuZOtf25tywGY62Z4D1kjC0b-mOsmk4i1klrVfvxNo4wB-UYZ5_pd37T3CwmbvVCgBp-IsvoiUM6nTouXtbBgLF5C77gn8RpqDkY9aVOHSvoTI_oJu4Dqf0O79C2N0o5JcFcxH8UiMd6Ttx4mLLxqCPn1LNlzr1Erfm7KKcxGcOblcw09CW14XsXVABaWYaWb2M6u1QmPSO2abflhqb5aFo260Pb-n5b6ZC4fwLXNoKT2KwOiOD8e0ecZEOpxBRvIG8hqCN-a37FzdCUiPdzo38U4RwyXq0R7acx6k53WsCdjPNynGfVDw8ws3_oLnfX9c1hHiLrN55vJnlEEfTRDE5joA9MdvznwFw9Roo9xKq-FrVmNdUUaeZY7RQDLsG1uYqPlY_-1x2t3p5_lo4cHYUFaVCV?></g></svg>